<svg xmlns="http://www.w3.org/2000/svg" width="64.683" height="64.683" viewBox="0 0 64.683 64.683">
  <g id="Group_272" data-name="Group 272" transform="translate(-1656.5 -903.5)">
    <g id="Group_3" data-name="Group 3" transform="translate(3945 2374)">
      <rect id="Rectangle_3" data-name="Rectangle 3" width="56.211" height="40.235" transform="translate(-2285 -1458)" fill="none"/>
      <path id="Path_4" data-name="Path 4" d="M-1572.459-1336.226c11.377,0,20.6,8.628,20.6,19.272,0,8.513-5.9,15.735-14.076,18.285-1.044.19-1.415-.411-1.415-.925,0-.635.025-2.71.025-5.289a4.449,4.449,0,0,0-1.4-3.568c4.588-.477,9.408-2.107,9.408-9.509a7.178,7.178,0,0,0-2.122-5.173,6.5,6.5,0,0,0-.2-5.1s-1.726-.517-5.659,1.976a21.088,21.088,0,0,0-5.16-.649,20.691,20.691,0,0,0-5.156.649c-3.937-2.492-5.667-1.976-5.667-1.976a6.524,6.524,0,0,0-.2,5.1,7.2,7.2,0,0,0-2.122,5.173c0,7.383,4.81,9.037,9.385,9.524a4.012,4.012,0,0,0-1.308,2.577c-1.174.492-4.157,1.344-5.994-1.6a4.31,4.31,0,0,0-3.158-1.987s-2.008-.024-.14,1.171a5.211,5.211,0,0,1,2.286,2.819s1.209,3.44,6.94,2.274c.01,1.611.029,3.13.029,3.588,0,.51-.379,1.105-1.407.927-8.186-2.547-14.088-9.772-14.088-18.287,0-10.644,9.224-19.272,20.6-19.272" transform="translate(-684.435 -120.453)" fill="#fff" fill-rule="evenodd"/>
    </g>
    <g id="Group_271" data-name="Group 271" transform="translate(1657 904)">
      <rect id="Rectangle_52" data-name="Rectangle 52" width="58.488" height="58.488" rx="19.946" transform="translate(2.597 2.597)" fill="none" stroke="rgba(0,0,0,0)" stroke-width="1"/>
      <path id="Path_116" data-name="Path 116" d="M2086.422,397.317h-38.767a12.458,12.458,0,0,0-12.458,12.458v38.767A12.458,12.458,0,0,0,2047.655,461h38.767a12.458,12.458,0,0,0,12.458-12.458V409.775A12.458,12.458,0,0,0,2086.422,397.317Zm9.861,51.225a9.872,9.872,0,0,1-9.861,9.861h-38.767a9.872,9.872,0,0,1-9.861-9.861V409.775a9.872,9.872,0,0,1,9.861-9.861h38.767a9.872,9.872,0,0,1,9.861,9.861Z" transform="translate(-2035.197 -397.317)" fill="#fff" stroke="rgba(0,0,0,0)" stroke-width="1"/>
    </g>
  </g>
</svg>
